<svg width="756" height="182" viewBox="0 0 756 182" fill="none" xmlns="http://www.w3.org/2000/svg">
<path d="M120.88 32.488L79.1975 2.0133C77.6418 0.883058 75.7934 0.19864 73.8602 0.0371163C71.9271 -0.124407 69.9861 0.243378 68.2558 1.09906C66.5372 1.9432 65.0921 3.23475 64.0804 4.83053C63.0688 6.42631 62.5302 8.26399 62.5244 10.1399V97.0943C56.2303 93.4013 49.0291 91.4357 41.6829 91.4057C33.4388 91.4057 25.3799 93.7888 18.5251 98.2536C11.6704 102.718 6.32782 109.064 3.17294 116.489C0.0180604 123.914 -0.8074 132.084 0.800944 139.966C2.40929 147.848 6.3792 155.088 12.2087 160.77C18.0381 166.453 25.4653 170.323 33.551 171.891C41.6367 173.459 50.0177 172.654 57.6343 169.579C65.2508 166.503 71.7608 161.295 76.341 154.613C80.9212 147.931 83.3658 140.075 83.3658 132.039V30.4563L108.376 48.7412C109.47 49.5416 110.716 50.1239 112.042 50.455C113.367 50.7861 114.747 50.8594 116.102 50.6707C117.456 50.4821 118.76 50.0351 119.937 49.3555C121.115 48.6758 122.143 47.7767 122.965 46.7095C123.786 45.6423 124.383 44.4279 124.723 43.1357C125.062 41.8434 125.138 40.4986 124.944 39.178C124.75 37.8574 124.292 36.5869 123.595 35.439C122.898 34.2911 121.975 33.2884 120.88 32.488Z" fill="#FFFCEC"/>
<path d="M169.229 132.175C169.229 136.466 168.445 140.304 166.877 143.688C165.309 146.989 163.122 149.795 160.316 152.106C157.51 154.334 154.168 156.067 150.289 157.305C146.41 158.46 142.119 159.038 137.414 159.038C130.812 159.038 124.333 157.924 117.979 155.696C111.624 153.385 105.847 149.877 100.648 145.173L111.913 131.68C115.874 134.898 119.918 137.457 124.045 139.355C128.254 141.253 132.834 142.202 137.786 142.202C141.747 142.202 144.801 141.5 146.946 140.097C149.175 138.612 150.289 136.59 150.289 134.032V133.784C150.289 132.546 150.041 131.473 149.546 130.565C149.134 129.575 148.267 128.667 146.946 127.842C145.709 127.017 143.934 126.191 141.623 125.366C139.395 124.541 136.465 123.674 132.834 122.766C128.46 121.693 124.498 120.497 120.95 119.176C117.401 117.856 114.389 116.247 111.913 114.348C109.437 112.368 107.497 109.933 106.094 107.044C104.774 104.156 104.114 100.566 104.114 96.2744V96.0268C104.114 92.0654 104.857 88.5166 106.342 85.3805C107.828 82.1619 109.891 79.3971 112.532 77.0863C115.255 74.7755 118.474 73.0011 122.188 71.7632C125.901 70.5252 129.987 69.9063 134.443 69.9063C140.798 69.9063 146.616 70.8554 151.898 72.7535C157.263 74.6517 162.173 77.3752 166.63 80.9239L156.726 95.2841C152.847 92.6431 149.051 90.5799 145.337 89.0943C141.623 87.5263 137.91 86.7423 134.196 86.7423C130.482 86.7423 127.676 87.485 125.778 88.9705C123.962 90.3736 123.054 92.1479 123.054 94.2937V94.5413C123.054 95.9443 123.302 97.1822 123.797 98.2551C124.375 99.2455 125.365 100.153 126.768 100.979C128.171 101.804 130.069 102.588 132.463 103.331C134.938 104.073 138.033 104.94 141.747 105.93C146.121 107.086 150 108.406 153.384 109.892C156.85 111.295 159.739 113.028 162.049 115.091C164.443 117.072 166.217 119.424 167.373 122.147C168.61 124.871 169.229 128.131 169.229 131.927V132.175ZM254.356 101.35C254.356 106.384 253.448 110.8 251.633 114.596C249.817 118.392 247.3 121.57 244.081 124.128C240.945 126.686 237.231 128.626 232.94 129.946C228.731 131.184 224.192 131.803 219.322 131.803H204.839V157.8H185.774V71.1442H221.179C226.379 71.1442 231 71.887 235.044 73.3725C239.171 74.7755 242.637 76.7975 245.443 79.4384C248.332 82.0794 250.519 85.2567 252.004 88.9705C253.572 92.6018 254.356 96.6458 254.356 101.102V101.35ZM235.044 101.721V101.474C235.044 97.1822 233.641 93.9223 230.835 91.694C228.112 89.4657 224.357 88.3516 219.57 88.3516H204.839V114.844H219.941C224.728 114.844 228.442 113.606 231.083 111.13C233.724 108.571 235.044 105.435 235.044 101.721ZM356.73 114.472C356.73 120.662 355.575 126.48 353.264 131.927C350.953 137.291 347.734 142.037 343.608 146.163C339.564 150.207 334.695 153.426 329 155.819C323.388 158.13 317.24 159.286 310.555 159.286C303.87 159.286 297.722 158.13 292.11 155.819C286.498 153.426 281.628 150.249 277.502 146.287C273.458 142.243 270.28 137.539 267.97 132.175C265.741 126.728 264.627 120.909 264.627 114.72V114.472C264.627 108.282 265.783 102.505 268.093 97.141C270.404 91.694 273.582 86.9486 277.626 82.9046C281.752 78.7782 286.621 75.5595 292.233 73.2487C297.928 70.8554 304.118 69.6587 310.802 69.6587C317.487 69.6587 323.636 70.8554 329.248 73.2487C334.86 75.5595 339.688 78.7369 343.732 82.7809C347.858 86.7423 351.035 91.4464 353.264 96.8934C355.575 102.258 356.73 108.035 356.73 114.225V114.472ZM336.799 114.72V114.472C336.799 110.758 336.139 107.251 334.818 103.95C333.581 100.648 331.765 97.7599 329.372 95.2841C327.061 92.8082 324.296 90.8687 321.077 89.4657C317.859 87.9802 314.351 87.2374 310.555 87.2374C306.676 87.2374 303.127 87.9389 299.909 89.3419C296.772 90.7449 294.049 92.6844 291.738 95.1603C289.51 97.6361 287.735 100.525 286.415 103.826C285.177 107.044 284.558 110.511 284.558 114.225V114.472C284.558 118.186 285.177 121.693 286.415 124.995C287.735 128.296 289.551 131.184 291.862 133.66C294.255 136.136 297.02 138.117 300.156 139.602C303.375 141.005 306.924 141.707 310.802 141.707C314.599 141.707 318.106 141.005 321.325 139.602C324.544 138.199 327.267 136.26 329.495 133.784C331.806 131.308 333.581 128.461 334.818 125.242C336.139 121.941 336.799 118.434 336.799 114.72ZM439.252 88.723H412.884V157.8H393.82V88.723H367.452V71.1442H439.252V88.723ZM473.845 157.8H454.781V71.1442H473.845V157.8ZM571.635 143.811C569.406 146.205 567.095 148.35 564.702 150.249C562.309 152.147 559.668 153.797 556.779 155.2C553.973 156.521 550.878 157.511 547.495 158.171C544.111 158.914 540.315 159.286 536.106 159.286C529.751 159.286 523.85 158.13 518.403 155.819C512.956 153.509 508.252 150.372 504.291 146.411C500.329 142.367 497.234 137.622 495.006 132.175C492.778 126.728 491.664 120.909 491.664 114.72V114.472C491.664 108.282 492.778 102.505 495.006 97.141C497.234 91.694 500.329 86.9486 504.291 82.9046C508.252 78.7782 512.997 75.5595 518.527 73.2487C524.056 70.8554 530.164 69.6587 536.848 69.6587C540.892 69.6587 544.565 69.9888 547.866 70.649C551.25 71.3093 554.303 72.2171 557.027 73.3725C559.75 74.5279 562.267 75.9309 564.578 77.5815C566.889 79.2321 569.035 81.0477 571.016 83.0284L558.884 97.0172C555.5 93.9636 552.034 91.5702 548.485 89.8371C545.019 88.104 541.099 87.2374 536.725 87.2374C533.093 87.2374 529.71 87.9389 526.574 89.3419C523.52 90.7449 520.879 92.6844 518.651 95.1603C516.422 97.6361 514.689 100.525 513.451 103.826C512.213 107.044 511.594 110.511 511.594 114.225V114.472C511.594 118.186 512.213 121.693 513.451 124.995C514.689 128.296 516.381 131.184 518.527 133.66C520.755 136.136 523.396 138.117 526.45 139.602C529.586 141.005 533.011 141.707 536.725 141.707C541.676 141.707 545.844 140.799 549.228 138.983C552.694 137.168 556.119 134.692 559.503 131.556L571.635 143.811ZM661.791 157.8H639.509L620.939 130.07H605.96V157.8H586.896V71.1442H626.51C636.826 71.1442 644.832 73.6614 650.526 78.6956C656.303 83.7299 659.192 90.7449 659.192 99.7406V99.9882C659.192 107.003 657.459 112.739 653.992 117.196C650.609 121.57 646.152 124.788 640.623 126.852L661.791 157.8ZM639.88 100.979V100.731C639.88 96.6045 638.559 93.5097 635.918 91.4464C633.278 89.3832 629.605 88.3516 624.901 88.3516H605.96V113.234H625.272C629.976 113.234 633.566 112.12 636.042 109.892C638.601 107.663 639.88 104.692 639.88 100.979ZM753.109 71.1442L719.808 123.262V157.8H700.744V123.633L667.443 71.1442H689.726L710.4 105.93L731.445 71.1442H753.109Z" fill="#FFFCEC"/>
</svg>
