<svg width="28" height="35" viewBox="0 0 28 35" fill="none" xmlns="http://www.w3.org/2000/svg">
<path d="M27.0667 6.58522L17.7333 0.408089C17.385 0.178993 16.9711 0.0402637 16.5382 0.00752336C16.1054 -0.025217 15.6708 0.0493319 15.2833 0.222775C14.8985 0.393881 14.5749 0.655675 14.3484 0.979134C14.1219 1.30259 14.0013 1.67509 14 2.05532V19.6807C12.5907 18.9322 10.9782 18.5337 9.33334 18.5277C7.48738 18.5277 5.68287 19.0107 4.14802 19.9157C2.61316 20.8207 1.41688 22.107 0.710462 23.612C0.00404396 25.1169 -0.180787 26.773 0.179342 28.3706C0.53947 29.9683 1.42838 31.4358 2.73367 32.5877C4.03896 33.7395 5.702 34.5239 7.51249 34.8417C9.32298 35.1595 11.1996 34.9964 12.905 34.3731C14.6105 33.7497 16.0682 32.694 17.0937 31.3396C18.1193 29.9852 18.6667 28.3928 18.6667 26.7638V6.17341L24.2667 9.87968C24.5118 10.0419 24.7907 10.16 25.0876 10.2271C25.3844 10.2942 25.6933 10.309 25.9967 10.2708C26.3 10.2326 26.5918 10.142 26.8555 10.0042C27.1191 9.86644 27.3495 9.68419 27.5333 9.46788C27.7172 9.25156 27.8509 9.0054 27.927 8.74347C28.003 8.48153 28.0199 8.20894 27.9765 7.94126C27.9332 7.67358 27.8306 7.41605 27.6744 7.18338C27.5183 6.95071 27.3118 6.74745 27.0667 6.58522Z" fill="#FFFCEC"/>
</svg>
