<svg width="126" height="173" viewBox="0 0 126 173" fill="none" xmlns="http://www.w3.org/2000/svg">
<path d="M120.88 32.488L79.1975 2.0133C77.6418 0.883058 75.7934 0.19864 73.8602 0.0371163C71.9271 -0.124407 69.9861 0.243378 68.2558 1.09906C66.5372 1.9432 65.0921 3.23475 64.0804 4.83053C63.0688 6.42631 62.5302 8.26399 62.5244 10.1399V97.0943C56.2303 93.4013 49.0291 91.4357 41.6829 91.4057C33.4388 91.4057 25.3799 93.7888 18.5251 98.2536C11.6704 102.718 6.32782 109.064 3.17294 116.489C0.0180604 123.914 -0.8074 132.084 0.800944 139.966C2.40929 147.848 6.3792 155.088 12.2087 160.77C18.0381 166.453 25.4653 170.323 33.551 171.891C41.6367 173.459 50.0177 172.654 57.6343 169.579C65.2508 166.503 71.7608 161.295 76.341 154.613C80.9212 147.931 83.3658 140.075 83.3658 132.039V30.4563L108.376 48.7412C109.47 49.5416 110.716 50.1239 112.042 50.455C113.367 50.7861 114.747 50.8594 116.102 50.6707C117.456 50.4821 118.76 50.0351 119.937 49.3555C121.115 48.6758 122.143 47.7767 122.965 46.7095C123.786 45.6423 124.383 44.4279 124.723 43.1357C125.062 41.8434 125.138 40.4986 124.944 39.178C124.75 37.8574 124.292 36.5869 123.595 35.439C122.898 34.2911 121.975 33.2884 120.88 32.488Z" fill="#1CA731"/>
</svg>